<svg xmlns="http://www.w3.org/2000/svg" width="43" height="25" viewBox="0 0 43 25">
    <defs>
        <style>.a,.b,.d{fill:none;}.a{stroke:#7f9895;stroke-width:2px;}.c,.e{stroke:none;}.e{fill:#7f9895;}</style>
    </defs>
    <g transform="translate(-1736 -926.081)">
        <g class="a" transform="translate(1736 926.081)">
            <rect class="c" width="43" height="25" rx="5" />
            <rect class="d" x="1" y="1" width="41" height="23" rx="4" />
        </g>
        <g class="b" transform="translate(1774.677 941.472) rotate(-180)">
            <path class="c" d="M16.553.1A.417.417,0,0,1,17.1.1L33.465,13.687a.519.519,0,0,1-.271.915H.456a.519.519,0,0,1-.271-.915L8.67,6.644Z" />
            <path class="e" d="M 16.82458305358887 2.474220275878906 L 9.947404861450195 8.182722091674805 L 4.622373580932617 12.60284233093262 L 29.02678489685059 12.60284233093262 L 16.82458305358887 2.474220275878906 M 16.8245849609375 1.9073486328125e-06 C 16.9200325012207 1.9073486328125e-06 17.01548004150391 0.03344154357910156 17.09605407714844 0.1003217697143555 L 33.46480560302734 13.68745231628418 C 33.81641387939453 13.9793119430542 33.63149642944336 14.6028413772583 33.19333648681641 14.6028413772583 L 0.4558258056640625 14.6028413772583 C 0.01766586303710938 14.6028413772583 -0.1672439575195312 13.9793119430542 0.184356689453125 13.68745231628418 L 8.670005798339844 6.643811702728271 L 16.55311584472656 0.1003217697143555 C 16.63368988037109 0.03344154357910156 16.7291374206543 1.9073486328125e-06 16.8245849609375 1.9073486328125e-06 Z" />
        </g>
        <line class="a" y1="8.357" x2="8.914" transform="translate(1738.393 940.331)" />
        <path class="a" d="M0,8.357,8.914,0" transform="translate(1776.343 940.052) rotate(90)" />
    </g>
</svg>